<?xml version="1.0"?>
<svg xmlns="http://www.w3.org/2000/svg" xmlns:xlink="http://www.w3.org/1999/xlink" version="1.1" id="Capa_1" x="0px" y="0px" viewBox="0 0 512 512" style="enable-background:new 0 0 512 512;" xml:space="preserve" width="512px" height="512px" class=""><g transform="matrix(0.109583 0 0 0.109583 227.947 227.947)"><g>
	<path style="fill:#FF873C;" d="M217.167,386.775l-101.31,101.31c-4.691,4.701-10.942,7.211-17.353,7.211   c-2.48,0-4.981-0.37-7.431-1.15c-8.782-2.771-15.223-10.122-16.813-19.184l-7.822-44.489l-46.509-8.982   c-8.952-1.73-16.173-8.222-18.844-16.943s-0.33-18.134,6.121-24.585l83.796-83.806c5.861-5.851,15.363-5.851,21.214,0l53.02,35.067   l51.93,34.337C223.028,371.422,223.028,380.924,217.167,386.775z" data-original="#FF873C" class=""/>
	<path style="fill:#FF873C;" d="M510.915,404.549c-2.671,8.722-9.892,15.213-18.844,16.943l-46.519,8.982l-7.812,44.479   c-1.59,9.072-8.042,16.423-16.813,19.194c-2.451,0.77-4.951,1.15-7.431,1.15c-6.411,0-12.663-2.51-17.353-7.211l-101.31-101.31   c-5.861-5.851-5.861-15.353,0-21.214c2.881-2.881,28.316-19.724,53.42-36.077c25.935-16.923,51.52-33.327,51.52-33.327   c5.861-5.851,15.363-5.851,21.224,0l83.796,83.806C511.245,386.415,513.585,395.827,510.915,404.549z" data-original="#FF873C" class=""/>
</g><g>
	<path style="fill:#FA732D;" d="M445.552,430.474l-7.812,44.479c-1.59,9.072-8.042,16.423-16.813,19.194   c-2.451,0.77-4.951,1.15-7.431,1.15c-6.411,0-12.663-2.51-17.353-7.211l-101.31-101.31c-5.861-5.851-5.861-15.353,0-21.214   c2.881-2.881,28.316-19.724,53.42-36.077L445.552,430.474z" data-original="#FA732D" class=""/>
	<path style="fill:#FA732D;" d="M217.167,386.775l-101.31,101.31c-4.691,4.701-10.942,7.211-17.353,7.211   c-2.48,0-4.981-0.37-7.431-1.15c-8.782-2.771-15.223-10.122-16.813-19.184l-7.822-44.489l98.799-99.249l51.93,34.337   C223.028,371.422,223.028,380.924,217.167,386.775z" data-original="#FA732D" class=""/>
</g><path style="fill:#FFC44D;" d="M446.522,207.44c0,105.171-85.567,190.737-190.737,190.737S65.048,312.611,65.048,207.44  S150.614,16.703,255.785,16.703S446.522,102.27,446.522,207.44z" data-original="#FFC44D" class=""/><g>
	<path style="fill:#FF9D3B;" d="M446.522,207.44c0,105.171-85.567,190.737-190.737,190.737V16.703   C360.955,16.703,446.522,102.27,446.522,207.44z" data-original="#FF9D3B" class=""/>
	<path style="fill:#FF9D3B;" d="M385.4,207.44c0,71.474-58.141,129.615-129.615,129.615S126.17,278.914,126.17,207.44   S184.311,77.815,255.785,77.815S385.4,135.966,385.4,207.44z" data-original="#FF9D3B" class=""/>
</g><path style="fill:#F47E14;" d="M385.4,207.44c0,71.474-58.141,129.615-129.615,129.615V77.815  C327.259,77.815,385.4,135.966,385.4,207.44z" data-original="#F47E14" class=""/><path style="fill:#FFE388;" d="M319.177,207.72l-17.964,17.513l4.241,24.725c1.22,7.151-1.66,14.243-7.531,18.504  c-3.321,2.41-7.201,3.641-11.112,3.641c-3.001,0-6.031-0.73-8.822-2.19l-22.204-11.682l-22.204,11.682  c-6.421,3.371-14.063,2.821-19.934-1.45c-5.871-4.261-8.752-11.352-7.531-18.504l4.241-24.725l-17.964-17.513  c-5.191-5.061-7.031-12.502-4.781-19.404c2.24-6.901,8.092-11.832,15.273-12.883l24.825-3.601l11.102-22.494  c3.211-6.511,9.712-10.552,16.973-10.552s13.763,4.041,16.973,10.552l11.102,22.494l24.825,3.601  c7.181,1.05,13.033,5.981,15.273,12.883C326.209,195.218,324.368,202.659,319.177,207.72z" data-original="#FFE388" class="active-path"/><path style="fill:#FFC44D;" d="M319.177,207.72l-17.964,17.513l4.241,24.725c1.22,7.151-1.66,14.243-7.531,18.504  c-3.321,2.41-7.201,3.641-11.112,3.641c-3.001,0-6.031-0.73-8.822-2.19l-22.204-11.682V138.787c7.261,0,13.763,4.041,16.973,10.552  l11.102,22.494l24.825,3.601c7.181,1.05,13.033,5.981,15.273,12.883C326.209,195.218,324.368,202.659,319.177,207.72z" data-original="#FFC44D" class=""/></g> </svg>
